<svg xmlns="http://www.w3.org/2000/svg" width="475" height="85" viewBox="0 0 475 85">
    <g fill="#000" fill-rule="evenodd">
        <path d="M111.102 5.778h8.012V29.27c-.042 1.552.419 2.684 2.181 2.684 1.552 0 2.182-.923 2.182-2.684V5.778h8.012v22.737c0 5.327-2.685 9.438-10.236 9.438-6.25 0-10.151-2.978-10.151-9.438V5.778M142.605 13.749l.167 2.097h.126c.671-.965 2.475-2.852 5.537-2.852 3.901 0 5.915 2.81 5.915 6.208v17.996h-7.593V20.796c.042-1.258-.755-1.888-1.594-1.888-.755 0-1.678.63-1.678 1.804v16.486h-7.55V13.749h6.67M158.837 37.197h7.719V13.706h-7.719v23.491zm0-25.798h7.719V5.736h-7.719v5.663zM169.408 18.447v-4.908h2.181V6.743h7.677v6.796h3.23v4.908h-3.23v11.955c0 1.343.839 2.056 2.097 2.056.504.042 1.133 0 1.133 0v4.908h-4.321c-4.152 0-6.586-2.266-6.586-6.041V18.447h-2.181M180.819 58.509v-4.907h2.182v-6.796h7.676v6.796h3.23v4.907h-3.23v11.955c0 1.343.839 2.056 2.097 2.056.504.041 1.133 0 1.133 0v4.908h-4.321c-4.152 0-6.585-2.266-6.585-6.041V58.509h-2.182M195.206 22.348v-2.726c0-.965-.797-1.595-1.636-1.595-.965 0-1.636.713-1.636 1.636v2.685h3.272zm7.005 6.754v.838c-.084 4.741-2.769 7.971-8.641 7.971-5.412 0-8.725-2.727-8.725-8.054v-8.809c0-5.328 3.313-8.054 8.725-8.054 5.956 0 8.683 3.23 8.683 8.054v5.998h-10.319v4.195c0 .881.671 1.636 1.636 1.636.839 0 1.636-.671 1.636-1.636v-2.139h7.005zM213.705 30.947c0 1.259.755 1.804 1.635 1.804.755 0 1.679-.545 1.679-1.72V19.705c0-1.216-.924-1.72-1.679-1.72-.838 0-1.635.546-1.635 1.762.041 1.259 0 11.2 0 11.2zm10.654-25.253v31.462h-6.502l-.125-1.846h-.168c-.378.629-1.888 2.559-5.244 2.559-3.859 0-5.957-2.685-5.957-6.628V19.496c0-3.986 2.391-6.544 5.831-6.544 2.769 0 4.195 1.258 4.699 1.635h.042V5.694h7.424zM237.446 5.694h19.128v6.293h-5.495v25.127h-8.347V11.987h-5.286V5.694M265.593 22.348v-2.726c0-.965-.797-1.595-1.636-1.595-.965 0-1.637.713-1.637 1.636v2.685h3.273zm7.005 6.754v.838c-.084 4.741-2.769 7.971-8.641 7.971-5.412 0-8.725-2.727-8.725-8.054v-8.809c0-5.328 3.313-8.054 8.725-8.054 5.956 0 8.683 3.23 8.683 8.054v5.998h-10.32v4.195c0 .881.672 1.636 1.637 1.636.839 0 1.636-.671 1.636-1.636v-2.139h7.005zM294.997 28.137v1.72c0 4.824-3.187 8.054-9.144 8.054-5.412 0-9.145-2.727-9.145-8.054v-8.809c0-5.328 3.733-8.054 9.145-8.054 5.957 0 9.144 3.23 9.144 8.054v1.468h-7.592v-2.811c0-.965-.714-1.552-1.552-1.552-.965 0-1.594.671-1.594 1.552v11.494c0 .881.629 1.552 1.594 1.552.838 0 1.552-.587 1.552-1.552v-3.062h7.592M306.407 5.694v9.355h.042a6.739 6.739 0 0 1 4.908-2.139c4.153 0 5.873 2.852 5.873 6.25.042 2.559 0 17.912 0 17.912h-7.551V20.67c0-1.216-.755-1.846-1.594-1.846-.755 0-1.678.588-1.678 1.762v16.486h-7.55V5.694h7.55M328.598 13.749l.167 2.097h.126c.672-.965 2.475-2.852 5.537-2.852 3.901 0 5.915 2.81 5.915 6.208v17.996h-7.593V20.796c.042-1.258-.755-1.888-1.594-1.888-.755 0-1.677.63-1.677 1.804v16.486h-7.551V13.749h6.67M351.669 31.199c0 .881.755 1.636 1.72 1.594.839 0 1.719-.629 1.719-1.594V19.705c0-.965-.88-1.636-1.719-1.636-.965 0-1.72.713-1.72 1.594v11.536zm-7.341-10.151c0-5.328 3.65-8.054 9.061-8.054 5.957 0 9.103 3.23 9.103 8.054v8.809c0 4.824-3.104 8.054-9.103 8.054-5.369 0-9.061-2.685-9.061-8.012v-8.851zM218.649 77.027h7.761v-31.42h-7.761zM366.553 37.092h7.761V5.673h-7.761zM385.898 31.199c0 .881.755 1.636 1.72 1.594.839 0 1.72-.629 1.72-1.594V19.705c0-.965-.881-1.636-1.72-1.636-.965 0-1.72.713-1.72 1.594v11.536zm-7.34-10.151c0-5.328 3.649-8.054 9.06-8.054 5.957 0 9.104 3.23 9.104 8.054v8.809c0 4.824-3.105 8.054-9.104 8.054-5.369 0-9.06-2.685-9.06-8.012v-8.851zM408.298 29.899c0 1.216.756 1.762 1.595 1.762.755 0 1.635-.546 1.635-1.721V19.789c0-1.174-.88-1.72-1.635-1.72-.881 0-1.595.546-1.595 1.804v10.026zm.042 7.97v.461c0 .881.63 1.553 1.553 1.553.839 0 1.593-.588 1.593-1.553v-3.817h-.042c-.838.713-2.348 1.552-4.656 1.552-3.691 0-5.789-2.433-5.789-6.334V19.454c0-3.734 2.056-6.502 5.873-6.502 3.44 0 4.824 2.013 5.243 2.516h.168l.126-1.803h6.418V36.82c0 4.782-2.306 7.971-8.934 7.971-5.705 0-8.81-2.518-8.894-6.922h7.341zM423.609 37.197h7.718V13.706h-7.718v23.491zm0-25.798h7.718V5.736h-7.718v5.663zM446.051 22.348v-2.726c0-.965-.797-1.595-1.637-1.595-.965 0-1.636.713-1.636 1.636v2.685h3.273zm7.005 6.754v.838c-.084 4.741-2.769 7.971-8.642 7.971-5.411 0-8.724-2.727-8.724-8.054v-8.809c0-5.328 3.313-8.054 8.724-8.054 5.957 0 8.684 3.23 8.684 8.054v5.998h-10.32v4.195c0 .881.671 1.636 1.636 1.636.84 0 1.637-.671 1.637-1.636v-2.139h7.005zM474.156 21.257h-6.88v-.587-.839c0-.503-.168-1.007-.461-1.384-.335-.378-.839-.63-1.51-.63s-1.175.21-1.468.504c-.294.294-.42.671-.42 1.049 0 .88.629 1.552 1.636 2.181 1.007.587 2.307 1.175 3.607 1.804 1.679.797 3.231 1.594 4.363 2.643 1.133 1.09 1.804 2.475 1.804 4.446 0 2.475-1.007 4.363-2.684 5.621-1.721 1.217-4.07 1.846-6.796 1.846-2.937 0-5.243-.755-6.754-2.098-1.552-1.384-2.391-3.355-2.391-5.831v-.88h6.963v1.887c0 .546.168 1.091.504 1.469.377.377.923.629 1.678.629.629 0 1.133-.21 1.468-.545a1.87 1.87 0 0 0 .545-1.343c0-.755-.378-1.384-1.09-1.971-.755-.588-1.888-1.133-3.398-1.762-2.098-.798-3.649-1.678-4.656-2.853-1.049-1.133-1.595-2.601-1.595-4.572 0-2.433 1.049-4.195 2.685-5.37 1.594-1.132 3.775-1.677 6.083-1.677 2.39 0 4.614.545 6.208 1.761 1.594 1.217 2.559 3.104 2.559 5.873v.629M203.163 70.222c0 1.51 1.09 2.097 1.971 2.097 1.511 0 2.391-1.175 2.391-2.684v-3.692c-1.635.797-4.362 1.72-4.362 4.279zm4.279-10.823c0-1.258-.923-1.803-1.888-1.803-1.049 0-1.929.797-1.929 2.055v1.468h-6.88v-1.133c0-4.404 3.691-7.131 8.641-7.131 6.083 0 8.935 2.979 8.935 7.844v12.04c0 2.097.42 3.776.546 4.321h-6.544l-.21-1.972h-.21c-.587.587-2.097 2.684-5.705 2.684-3.44 0-6.082-2.558-6.082-6.082V70.6c0-4.154 3.649-5.999 7.005-7.425 1.888-.839 4.321-1.553 4.321-3.776zM58.253 81.931l-2.783-9.973.344-.132 5.459 8.757c2.683-1.207 5.326-2.915 7.468-4.71l-4.987-8.031.284-.238 7.095 6.24c2.372-2.021 4.548-4.575 6.161-7.01l-6.5-5.79.199-.311 7.934 3.587c1.753-2.719 3.21-5.904 4.075-9.042l-7.194-3.335.088-.357 7.875.934c.847-3.141 1.225-6.567 1.189-10.022H58.939c-.03 8.991-7.328 16.274-16.327 16.274-9.016 0-16.326-7.312-16.326-16.328 0-8.258 6.131-15.084 14.089-16.175L33.755.95c-1.407.232-3.17.691-4.471 1.196l6.555 23.708-.361.138L23.306 4.629c-1.46.645-3.097 1.624-4.328 2.532l12.04 19.909-.294.233-16.54-16.424c-1.222 1.003-2.652 2.416-3.604 3.645l15.968 15.217-.241.288-19.14-11.053c-1.04 1.368-2.082 3.248-2.763 4.795l18.29 10.071-.137.349-20.166-5.598c-.659 1.696-1.254 3.881-1.535 5.684l19.195 4.695-.066.381-19.81.01C.11 40.318 0 41.52 0 42.49c0 .946.105 2.085.166 3.014l18.642-.158.037.358L.761 50.216c.331 2.14.88 4.263 1.645 6.227l16.805-4.608.144.341-15.243 8.438a34.887 34.887 0 0 0 3.344 5.831l13.831-8 .228.292-11.453 11.131a33.403 33.403 0 0 0 4.9 4.926l10.297-10.19.301.217-7.36 12.477a33.775 33.775 0 0 0 6.26 3.631l6.652-11.405.347.138-3.447 12.743c2.264.896 4.718 1.533 7.278 1.929l3.213-11.783.366.059.078 12.186c1.178.098 2.361.204 3.564.204 1.441 0 2.865-.127 4.269-.266l.005-11.305.367-.05 3.089 10.864a33.722 33.722 0 0 0 7.998-2.305l.014-.007zM44.816.107A26.685 26.685 0 0 0 42.529 0c-.628 0-1.503.032-2.11.096l.234 26.137a16.674 16.674 0 0 1 1.959-.117c.669 0 1.328.042 1.976.119L44.816.107zm.239 26.191c1.267.19 2.488.527 3.642.99l7.07-25.131a23.414 23.414 0 0 0-4.045-1.109l-6.667 25.25zm4.259 1.254a16.308 16.308 0 0 1 3.105 1.836L65.893 7.061c-.973-.702-2.376-1.572-3.485-2.073L49.314 27.552zm25.062-13.104c-.682-.832-1.741-1.978-2.594-2.696L53.178 29.995a16.427 16.427 0 0 1 2.27 2.357l18.928-17.904zM56.404 33.702a16.04 16.04 0 0 1 1.178 2.213l22.88-12.456c-.349-.813-.982-1.985-1.49-2.716L56.404 33.702zm2.333 6.161a16.524 16.524 0 0 0-.551-2.342l25.224-6.432c.267.763.538 1.96.666 2.747l-25.339 6.027zM155.332 69.749c0 1.217.755 1.762 1.594 1.762.755 0 1.636-.545 1.636-1.72V59.64c0-1.175-.881-1.72-1.636-1.72-.881 0-1.594.545-1.594 1.804v10.025zm.042 7.97v.462c0 .881.629 1.552 1.552 1.552.839 0 1.594-.587 1.594-1.552v-3.818h-.042c-.839.713-2.349 1.552-4.656 1.552-3.692 0-5.789-2.433-5.789-6.334V59.304c0-3.734 2.055-6.502 5.873-6.502 3.439 0 4.824 2.013 5.243 2.516h.168l.126-1.803h6.417v23.156c0 4.781-2.306 7.971-8.934 7.971-5.705 0-8.809-2.518-8.893-6.923h7.341zM170.243 77.048h7.718V53.557h-7.718v23.491zm0-25.798h7.718v-5.663h-7.718v5.663zM135.96 77.048h7.717V53.557h-7.717v23.491zm0-25.798h7.717v-5.663h-7.717v5.663zM119.13 71.32c4.462.273 4.561-1.667 4.435-5.835V55.273c-.041-3.669-1.156-3.96-4.435-3.96V71.32zm-8.042 5.627V45.686h8.668c2.667 0 5.877.083 8.253 1.459 2.834 1.667 3.493 4.709 3.493 7.71v13.881c-.041 3.126-1.201 5.418-3.326 6.752-1.918 1.251-4.252 1.459-6.503 1.459h-10.585z"/>
    </g>
</svg>
